<?xml version="1.0"?>
<svg xmlns="http://www.w3.org/2000/svg" id="_x33_0" enable-background="new 0 0 64 64" height="512px" viewBox="0 0 64 64" width="512px"><g><g><path d="m60 14c-1.302 0-2.402.839-2.816 2h-7.184v.007c0 .671-.058 1.335-.148 1.993h7.332c.414 1.161 1.514 2 2.816 2 1.654 0 3-1.346 3-3s-1.346-3-3-3z" data-original="#000000" class="active-path" data-old_color="#000000" fill="#FFFFFF"/><path d="m44.97 24.768-2.778-7.41-2.73 10.923-2.712-3.615-3.75 3.748v11.586h2c.129 0 .253.022.378.038.984-4.028 3.242-7.65 6.47-10.283l2.126-1.734c3.244-2.434 5.342-6.077 5.879-10.021h-2.176z" data-original="#000000" class="active-path" data-old_color="#000000" fill="#FFFFFF"/><path d="m31 40v-12.414l4.537-4.537-2.645-3.527-2.892 2.892-2.917-2.917-2.743 3.429 4.66 4.66v12.414z" data-original="#000000" class="active-path" data-old_color="#000000" fill="#FFFFFF"/><path d="m24 43c0 .551.448 1 1 1h10c.552 0 1-.449 1-1s-.448-1-1-1h-10c-.552 0-1 .449-1 1z" data-original="#000000" class="active-path" data-old_color="#000000" fill="#FFFFFF"/><path d="m56 51c-2.757 0-5 2.243-5 5h-2c0-1.136.278-2.207.761-3.156-.462-1.1-1.545-1.844-2.761-1.844v-2c1.628 0 3.115.804 4.038 2.068 1.269-1.276 3.025-2.068 4.962-2.068.219 0 .434.013.647.033.234-.648.353-1.329.353-2.033 0-3.309-2.691-6-6-6s-6 2.691-6 6h-2c0-3.342 2.062-6.209 4.98-7.404-.209-3.12-2.808-5.596-5.98-5.596-.59 0-1.164.102-1.722.268-1.493 1.98-2.543 4.27-3.067 6.721.485.534.789 1.235.789 2.011 0 .771-.301 1.468-.78 2 .48.532.78 1.229.78 2 0 1.39-.955 2.552-2.24 2.89-.85 2.439-3.133 4.11-5.76 4.11-2.626 0-4.908-1.67-5.759-4.109-1.286-.339-2.241-1.5-2.241-2.891 0-.771.301-1.468.78-2-.48-.532-.78-1.229-.78-2 0-.776.304-1.478.789-2.011-.173-.808-.39-1.603-.674-2.371-.634-.398-1.356-.618-2.115-.618-2.206 0-4 1.794-4 4s1.794 4 4 4v2c-1.75 0-3.323-.758-4.421-1.957-1.454.206-2.579 1.447-2.579 2.957h-2c0-2.212 1.454-4.072 3.449-4.729-.099-.242-.179-.492-.246-.749-.683-.336-1.434-.522-2.203-.522-2.757 0-5 2.243-5 5 0 1.141.402 2.227 1.11 3.111 1.463.271 2.772 1.066 3.69 2.288l-1.6 1.201c-.763-1.017-1.93-1.6-3.2-1.6-2.206 0-4 1.794-4 4s1.794 4 4 4h11.111c-1.301-1.272-2.111-3.042-2.111-5 0-1.725.633-3.382 1.783-4.667l1.49 1.334c-.821.917-1.273 2.101-1.273 3.333 0 2.757 2.243 5 5 5h33c2.757 0 5-2.243 5-5s-2.243-5-5-5z" data-original="#000000" class="active-path" data-old_color="#000000" fill="#FFFFFF"/><path d="m25 48h10c.552 0 1-.449 1-1s-.448-1-1-1h-10c-.552 0-1 .449-1 1s.448 1 1 1z" data-original="#000000" class="active-path" data-old_color="#000000" fill="#FFFFFF"/><path d="m30 52c1.477 0 2.794-.786 3.523-2h-7.047c.731 1.215 2.047 2 3.524 2z" data-original="#000000" class="active-path" data-old_color="#000000" fill="#FFFFFF"/><path d="m46.126 5.948c-1.64-1.874-4.008-2.948-6.497-2.948-2.637 0-5.093 1.181-6.739 3.239l-.483.604c-.59.736-1.467 1.157-2.407 1.157s-1.817-.421-2.405-1.155l-.485-.606c-1.646-2.058-4.102-3.239-6.739-3.239-2.489 0-4.857 1.074-6.496 2.948l-.168.191c-2.391 2.732-3.707 6.236-3.707 9.868 0 4.692 2.241 9.174 5.994 11.989l2.158 1.759c3.228 2.633 5.486 6.255 6.47 10.283.125-.016.249-.038.378-.038h2v-11.586l-5.34-5.34 5.257-6.571 3.083 3.083 3.108-3.108 5.069 6.759.362.482 3.27-13.077 3.222 8.59 1.292-3.232h3.677c-.002-3.629-1.318-7.131-3.708-9.862z" data-original="#000000" class="active-path" data-old_color="#000000" fill="#FFFFFF"/></g></g> </svg>
